%TF.GenerationSoftware,KiCad,Pcbnew,(6.0.7)*%
%TF.CreationDate,2022-09-10T09:27:16+02:00*%
%TF.ProjectId,K616_USB_IF,4b363136-5f55-4534-925f-49462e6b6963,0*%
%TF.SameCoordinates,PX73df160PY5f71980*%
%TF.FileFunction,Soldermask,Bot*%
%TF.FilePolarity,Negative*%
%FSLAX46Y46*%
G04 Gerber Fmt 4.6, Leading zero omitted, Abs format (unit mm)*
G04 Created by KiCad (PCBNEW (6.0.7)) date 2022-09-10 09:27:16*
%MOMM*%
%LPD*%
G01*
G04 APERTURE LIST*
%ADD10C,1.600000*%
%ADD11R,1.700000X1.700000*%
%ADD12O,1.700000X1.700000*%
G04 APERTURE END LIST*
D10*
%TO.C,U14*%
X10160000Y30460000D03*
X12700000Y30460000D03*
X15240000Y30460000D03*
X17780000Y30460000D03*
X20320000Y30460000D03*
X22860000Y30460000D03*
X25400000Y30460000D03*
X27940000Y30460000D03*
X30480000Y30460000D03*
X33020000Y30460000D03*
X35560000Y30460000D03*
X38100000Y30460000D03*
X40640000Y30460000D03*
X43180000Y30460000D03*
X45720000Y30460000D03*
X48260000Y30460000D03*
X50800000Y30460000D03*
X50800000Y45700000D03*
X48260000Y45700000D03*
X45720000Y45700000D03*
X43180000Y45700000D03*
X40640000Y45700000D03*
X38100000Y45700000D03*
X35560000Y45700000D03*
X33020000Y45700000D03*
X30480000Y45700000D03*
X27940000Y45700000D03*
X25400000Y45700000D03*
X22860000Y45700000D03*
X20320000Y45700000D03*
X17780000Y45700000D03*
X15240000Y45700000D03*
X12700000Y45700000D03*
X10160000Y45700000D03*
%TD*%
D11*
%TO.C,J4*%
X21590000Y-1905000D03*
D12*
X21590000Y-4445000D03*
X24130000Y-1905000D03*
X24130000Y-4445000D03*
X26670000Y-1905000D03*
X26670000Y-4445000D03*
X29210000Y-1905000D03*
X29210000Y-4445000D03*
X31750000Y-1905000D03*
X31750000Y-4445000D03*
X34290000Y-1905000D03*
X34290000Y-4445000D03*
X36830000Y-1905000D03*
X36830000Y-4445000D03*
X39370000Y-1905000D03*
X39370000Y-4445000D03*
X41910000Y-1905000D03*
X41910000Y-4445000D03*
X44450000Y-1905000D03*
X44450000Y-4445000D03*
X46990000Y-1905000D03*
X46990000Y-4445000D03*
X49530000Y-1905000D03*
X49530000Y-4445000D03*
%TD*%
D11*
%TO.C,J1*%
X0Y0D03*
D12*
X0Y-2540000D03*
X-2540000Y0D03*
X-2540000Y-2540000D03*
X-5080000Y0D03*
X-5080000Y-2540000D03*
X-7620000Y0D03*
X-7620000Y-2540000D03*
X-10160000Y0D03*
X-10160000Y-2540000D03*
X-12700000Y0D03*
X-12700000Y-2540000D03*
X-15240000Y0D03*
X-15240000Y-2540000D03*
X-17780000Y0D03*
X-17780000Y-2540000D03*
X-20320000Y0D03*
X-20320000Y-2540000D03*
X-22860000Y0D03*
X-22860000Y-2540000D03*
X-25400000Y0D03*
X-25400000Y-2540000D03*
X-27940000Y0D03*
X-27940000Y-2540000D03*
%TD*%
D11*
%TO.C,J5*%
X52070000Y8255000D03*
D12*
X52070000Y5715000D03*
X52070000Y3175000D03*
X52070000Y635000D03*
X52070000Y-1905000D03*
%TD*%
D11*
%TO.C,J2*%
X21590000Y635000D03*
D12*
X24130000Y635000D03*
X26670000Y635000D03*
X29210000Y635000D03*
X31750000Y635000D03*
X34290000Y635000D03*
X36830000Y635000D03*
X39370000Y635000D03*
X41910000Y635000D03*
X44450000Y635000D03*
%TD*%
D11*
%TO.C,J3*%
X24130000Y-6985000D03*
D12*
X26670000Y-6985000D03*
X29210000Y-6985000D03*
X31750000Y-6985000D03*
X34290000Y-6985000D03*
X36830000Y-6985000D03*
X39370000Y-6985000D03*
X41910000Y-6985000D03*
X44450000Y-6985000D03*
X46990000Y-6985000D03*
%TD*%
M02*
