M48
; DRILL file {KiCad (6.0.7)} date sob 10 sep 2022 09:28:17
; FORMAT={-:-/ absolute / inch / decimal}
; #@! TF.CreationDate,2022-09-10T09:28:17+02:00
; #@! TF.GenerationSoftware,Kicad,Pcbnew,(6.0.7)
; #@! TF.FileFunction,MixedPlating,1,2
FMAT,2
INCH
; #@! TA.AperFunction,Plated,PTH,ViaDrill
T1C0.0157
; #@! TA.AperFunction,Plated,PTH,ComponentDrill
T2C0.0394
%
G90
G05
T1
X-1.225Y1.9
X-1.125Y0.25
X-1.1Y0.6
X-0.825Y1.45
X-0.825Y1.15
X-0.825Y0.8
X-0.825Y0.5
X-0.625Y1.7
X-0.6Y0.4
X-0.575Y1.7
X-0.525Y1.7
X-0.475Y1.7
X-0.425Y1.7
X-0.375Y1.7
X-0.325Y1.7
X-0.3Y1.55
X-0.3Y0.9
X-0.3Y0.725
X-0.275Y1.7
X-0.25Y0.425
X-0.125Y1.45
X-0.125Y1.15
X-0.125Y0.5
X-0.075Y0.9
X0.05Y1.55
X0.15Y0.925
X0.225Y1.45
X0.225Y0.8
X0.225Y0.5
X0.25Y1.55
X0.275Y0.9
X0.325Y1.075
X0.35Y1.625
X0.575Y0.8
X0.575Y0.5
X0.625Y1.075
X0.625Y0.9
X0.7Y1.075
X0.775Y0.9
X0.825Y0.9
X0.875Y0.925
X0.9Y1.35
X0.925Y0.8
X0.925Y0.5
X0.925Y0.275
X0.95Y1.075
X0.975Y0.9
X1.05Y1.125
X1.15Y1.075
X1.275Y1.075
X1.275Y0.8
X1.275Y0.5
X1.325Y0.9
X1.625Y0.8
X1.625Y0.5
X1.675Y0.9
X1.8Y0.575
X1.975Y0.9
X2.0Y0.8
X2.075Y1.9
T2
X-1.1Y0.0
X-1.1Y-0.1
X-1.0Y0.0
X-1.0Y-0.1
X-0.9Y0.0
X-0.9Y-0.1
X-0.8Y0.0
X-0.8Y-0.1
X-0.7Y0.0
X-0.7Y-0.1
X-0.6Y0.0
X-0.6Y-0.1
X-0.5Y0.0
X-0.5Y-0.1
X-0.4Y0.0
X-0.4Y-0.1
X-0.3Y0.0
X-0.3Y-0.1
X-0.2Y0.0
X-0.2Y-0.1
X-0.1Y0.0
X-0.1Y-0.1
X0.0Y0.0
X0.0Y-0.1
X0.4Y1.7992
X0.4Y1.1992
X0.5Y1.7992
X0.5Y1.1992
X0.6Y1.7992
X0.6Y1.1992
X0.7Y1.7992
X0.7Y1.1992
X0.8Y1.7992
X0.8Y1.1992
X0.85Y0.025
X0.85Y-0.075
X0.85Y-0.175
X0.9Y1.7992
X0.9Y1.1992
X0.95Y0.025
X0.95Y-0.075
X0.95Y-0.175
X0.95Y-0.275
X1.0Y1.7992
X1.0Y1.1992
X1.05Y0.025
X1.05Y-0.075
X1.05Y-0.175
X1.05Y-0.275
X1.1Y1.7992
X1.1Y1.1992
X1.15Y0.025
X1.15Y-0.075
X1.15Y-0.175
X1.15Y-0.275
X1.2Y1.7992
X1.2Y1.1992
X1.25Y0.025
X1.25Y-0.075
X1.25Y-0.175
X1.25Y-0.275
X1.3Y1.7992
X1.3Y1.1992
X1.35Y0.025
X1.35Y-0.075
X1.35Y-0.175
X1.35Y-0.275
X1.4Y1.7992
X1.4Y1.1992
X1.45Y0.025
X1.45Y-0.075
X1.45Y-0.175
X1.45Y-0.275
X1.5Y1.7992
X1.5Y1.1992
X1.55Y0.025
X1.55Y-0.075
X1.55Y-0.175
X1.55Y-0.275
X1.6Y1.7992
X1.6Y1.1992
X1.65Y0.025
X1.65Y-0.075
X1.65Y-0.175
X1.65Y-0.275
X1.7Y1.7992
X1.7Y1.1992
X1.75Y0.025
X1.75Y-0.075
X1.75Y-0.175
X1.75Y-0.275
X1.8Y1.7992
X1.8Y1.1992
X1.85Y-0.075
X1.85Y-0.175
X1.85Y-0.275
X1.9Y1.7992
X1.9Y1.1992
X1.95Y-0.075
X1.95Y-0.175
X2.0Y1.7992
X2.0Y1.1992
X2.05Y0.325
X2.05Y0.225
X2.05Y0.125
X2.05Y0.025
X2.05Y-0.075
T0
M30
